HIERARCHY
ROOT Hips
{
  OFFSET 1.93905 94.6688 -11.4221
  CHANNELS 6 Xposition Yposition Zposition Zrotation Xrotation Yrotation
  JOINT LeftUpLeg
  {
    OFFSET 8.64259 1.95398 -2.38835
    CHANNELS 6 Xposition Yposition Zposition Zrotation Xrotation Yrotation
    JOINT LeftLeg
    {
      OFFSET 43.7702 0 0
      CHANNELS 6 Xposition Yposition Zposition Zrotation Xrotation Yrotation
      JOINT LeftFoot
      {
        OFFSET 40.6238 0 0
        CHANNELS 6 Xposition Yposition Zposition Zrotation Xrotation Yrotation
        JOINT LeftToeBase
        {
          OFFSET 12.7242 0 0
          CHANNELS 6 Xposition Yposition Zposition Zrotation Xrotation Yrotation
          End Site
          {
            OFFSET 0 0 0
          }
        }
      }
    }
  }
  JOINT RightUpLeg
  {
    OFFSET -8.2249 1.95398 -2.59336
    CHANNELS 6 Xposition Yposition Zposition Zrotation Xrotation Yrotation
    JOINT RightLeg
    {
      OFFSET 43.5653 0 0
      CHANNELS 6 Xposition Yposition Zposition Zrotation Xrotation Yrotation
      JOINT RightFoot
      {
        OFFSET 40.6238 0 0
        CHANNELS 6 Xposition Yposition Zposition Zrotation Xrotation Yrotation
        JOINT RightToeBase
        {
          OFFSET 12.7242 0 0
          CHANNELS 6 Xposition Yposition Zposition Zrotation Xrotation Yrotation
          End Site
          {
            OFFSET 0 0 0
          }
        }
      }
    }
  }
  JOINT Spine
  {
    OFFSET 0.165834 0.87714 6.61349
    CHANNELS 6 Xposition Yposition Zposition Zrotation Xrotation Yrotation
    JOINT Spine1
    {
      OFFSET 7.38963 1.71661e-005 0
      CHANNELS 6 Xposition Yposition Zposition Zrotation Xrotation Yrotation
      JOINT Spine2
      {
        OFFSET 11.9445 1.14441e-005 0
        CHANNELS 6 Xposition Yposition Zposition Zrotation Xrotation Yrotation
        JOINT Spine3
        {
          OFFSET 14.7254 4.19617e-005 0
          CHANNELS 6 Xposition Yposition Zposition Zrotation Xrotation Yrotation
          JOINT Spine4
          {
            OFFSET 10.9679 0 0
            CHANNELS 6 Xposition Yposition Zposition Zrotation Xrotation Yrotation
            JOINT RightShoulder
            {
              OFFSET 2.46616 -1.6653 3.69651
              CHANNELS 6 Xposition Yposition Zposition Zrotation Xrotation Yrotation
              JOINT RightArm
              {
                OFFSET 13.0012 0 0
                CHANNELS 6 Xposition Yposition Zposition Zrotation Xrotation Yrotation
                JOINT RightForeArm
                {
                  OFFSET 28.7848 1.52588e-005 0
                  CHANNELS 6 Xposition Yposition Zposition Zrotation Xrotation Yrotation
                  JOINT RightHand
                  {
                    OFFSET 26.5688 1.52588e-005 0
                    CHANNELS 6 Xposition Yposition Zposition Zrotation Xrotation Yrotation
                    JOINT RightHandMiddle1
                    {
                      OFFSET 8.03675 -0.886582 0.727868
                      CHANNELS 6 Xposition Yposition Zposition Zrotation Xrotation Yrotation
                      JOINT RightHandMiddle2
                      {
                        OFFSET 2.78833 0 0
                        CHANNELS 6 Xposition Yposition Zposition Zrotation Xrotation Yrotation
                        JOINT RightHandMiddle3
                        {
                          OFFSET 2.41155 0 0
                          CHANNELS 6 Xposition Yposition Zposition Zrotation Xrotation Yrotation
                          End Site
                          {
                            OFFSET 0 0 0
                          }
                        }
                      }
                    }
                    JOINT RightHandRing1
                    {
                      OFFSET 7.97966 -0.886765 -1.00486
                      CHANNELS 6 Xposition Yposition Zposition Zrotation Xrotation Yrotation
                      JOINT RightHandRing2
                      {
                        OFFSET 2.86368 0 0
                        CHANNELS 6 Xposition Yposition Zposition Zrotation Xrotation Yrotation
                        JOINT RightHandRing3
                        {
                          OFFSET 2.11079 0 0
                          CHANNELS 6 Xposition Yposition Zposition Zrotation Xrotation Yrotation
                          End Site
                          {
                            OFFSET 0 0 0
                          }
                        }
                      }
                    }
                    JOINT RightHandPinky1
                    {
                      OFFSET 8.03707 -0.887528 -2.60696
                      CHANNELS 6 Xposition Yposition Zposition Zrotation Xrotation Yrotation
                      JOINT RightHandPinky2
                      {
                        OFFSET 1.84628 0 0
                        CHANNELS 6 Xposition Yposition Zposition Zrotation Xrotation Yrotation
                        JOINT RightHandPinky3
                        {
                          OFFSET 1.88434 0 0
                          CHANNELS 6 Xposition Yposition Zposition Zrotation Xrotation Yrotation
                          End Site
                          {
                            OFFSET 0 0 0
                          }
                        }
                      }
                    }
                    JOINT RightHandIndex1
                    {
                      OFFSET 7.92262 -0.885498 2.31175
                      CHANNELS 6 Xposition Yposition Zposition Zrotation Xrotation Yrotation
                      JOINT RightHandIndex2
                      {
                        OFFSET 2.63761 0 0
                        CHANNELS 6 Xposition Yposition Zposition Zrotation Xrotation Yrotation
                        JOINT RightHandIndex3
                        {
                          OFFSET 2.16656 0 0
                          CHANNELS 6 Xposition Yposition Zposition Zrotation Xrotation Yrotation
                          End Site
                          {
                            OFFSET 0 0 0
                          }
                        }
                      }
                    }
                    JOINT RightHandThumb1
                    {
                      OFFSET 3.4769 0.0597992 2.88789
                      CHANNELS 6 Xposition Yposition Zposition Zrotation Xrotation Yrotation
                      JOINT RightHandThumb2
                      {
                        OFFSET 2.77686 9.72748e-005 -1.52588e-005
                        CHANNELS 6 Xposition Yposition Zposition Zrotation Xrotation Yrotation
                        JOINT RightHandThumb3
                        {
                          OFFSET 2.42058 -9.15528e-005 0
                          CHANNELS 6 Xposition Yposition Zposition Zrotation Xrotation Yrotation
                          End Site
                          {
                            OFFSET 0 0 0
                          }
                        }
                      }
                    }
                  }
                }
              }
            }
            JOINT LeftShoulder
            {
              OFFSET 2.38034 -1.29275 -3.7523
              CHANNELS 6 Xposition Yposition Zposition Zrotation Xrotation Yrotation
              JOINT LeftArm
              {
                OFFSET 16.3182 6.10351e-005 0
                CHANNELS 6 Xposition Yposition Zposition Zrotation Xrotation Yrotation
                JOINT LeftForeArm
                {
                  OFFSET 27.0901 0 0
                  CHANNELS 6 Xposition Yposition Zposition Zrotation Xrotation Yrotation
                  JOINT LeftHand
                  {
                    OFFSET 24.5451 1.52588e-005 0
                    CHANNELS 6 Xposition Yposition Zposition Zrotation Xrotation Yrotation
                    JOINT LeftHandMiddle1
                    {
                      OFFSET 9.21802 0.665817 0.545532
                      CHANNELS 6 Xposition Yposition Zposition Zrotation Xrotation Yrotation
                      JOINT LeftHandMiddle2
                      {
                        OFFSET 2.66255 0 0
                        CHANNELS 6 Xposition Yposition Zposition Zrotation Xrotation Yrotation
                        JOINT LeftHandMiddle3
                        {
                          OFFSET 2.2804 0 0
                          CHANNELS 6 Xposition Yposition Zposition Zrotation Xrotation Yrotation
                          End Site
                          {
                            OFFSET 0 0 0
                          }
                        }
                      }
                    }
                    JOINT LeftHandRing1
                    {
                      OFFSET 9.24775 0.665192 -1.1267
                      CHANNELS 6 Xposition Yposition Zposition Zrotation Xrotation Yrotation
                      JOINT LeftHandRing2
                      {
                        OFFSET 2.47041 0 -1.52588e-005
                        CHANNELS 6 Xposition Yposition Zposition Zrotation Xrotation Yrotation
                        JOINT LeftHandRing3
                        {
                          OFFSET 2.2054 0 0
                          CHANNELS 6 Xposition Yposition Zposition Zrotation Xrotation Yrotation
                          End Site
                          {
                            OFFSET 0 0 0
                          }
                        }
                      }
                    }
                    JOINT LeftHandPinky1
                    {
                      OFFSET 9.35384 0.66301 -2.72332
                      CHANNELS 6 Xposition Yposition Zposition Zrotation Xrotation Yrotation
                      JOINT LeftHandPinky2
                      {
                        OFFSET 1.63407 0 0
                        CHANNELS 6 Xposition Yposition Zposition Zrotation Xrotation Yrotation
                        JOINT LeftHandPinky3
                        {
                          OFFSET 1.71176 0 0
                          CHANNELS 6 Xposition Yposition Zposition Zrotation Xrotation Yrotation
                          End Site
                          {
                            OFFSET 0 0 0
                          }
                        }
                      }
                    }
                    JOINT LeftHandIndex1
                    {
                      OFFSET 8.73161 0.675903 2.06801
                      CHANNELS 6 Xposition Yposition Zposition Zrotation Xrotation Yrotation
                      JOINT LeftHandIndex2
                      {
                        OFFSET 2.66689 0 0
                        CHANNELS 6 Xposition Yposition Zposition Zrotation Xrotation Yrotation
                        JOINT LeftHandIndex3
                        {
                          OFFSET 2.12946 0 1.52588e-005
                          CHANNELS 6 Xposition Yposition Zposition Zrotation Xrotation Yrotation
                          End Site
                          {
                            OFFSET 0 0 0
                          }
                        }
                      }
                    }
                    JOINT LeftHandThumb1
                    {
                      OFFSET 4.96735 -0.62265 3.39586
                      CHANNELS 6 Xposition Yposition Zposition Zrotation Xrotation Yrotation
                      JOINT LeftHandThumb2
                      {
                        OFFSET 2.15386 1.52588e-005 0
                        CHANNELS 6 Xposition Yposition Zposition Zrotation Xrotation Yrotation
                        JOINT LeftHandThumb3
                        {
                          OFFSET 2.19511 -3.43323e-005 1.52588e-005
                          CHANNELS 6 Xposition Yposition Zposition Zrotation Xrotation Yrotation
                          End Site
                          {
                            OFFSET 0 0 0
                          }
                        }
                      }
                    }
                  }
                }
              }
            }
            JOINT Neck
            {
              OFFSET 5.0226 -0.0266342 0
              CHANNELS 6 Xposition Yposition Zposition Zrotation Xrotation Yrotation
              JOINT Head
              {
                OFFSET 6.69364 2.86102e-005 0
                CHANNELS 6 Xposition Yposition Zposition Zrotation Xrotation Yrotation
                End Site
                {
                  OFFSET 0 0 0
                }
              }
            }
          }
        }
      }
    }
  }
}
MOTION
Frames:	4
Frame Time:	0.0333333
115.059 79.3066 84.1 -73.5486 -54.8426 -65.787 8.64259 1.95398 -2.38835 156.357 49.4369 138.044 43.7702 7.03335e-006 2.84217e-014 -68.4747 20.929 2.23066 40.6238 1.43051e-006 9.53674e-007 3.24069 44.4671 68.994 12.7242 2.38419e-006 9.53674e-007 28.7808 4.17459e-006 1.16017e-005 -8.2249 1.95398 -2.59336 174.89 17.1104 63.2667 43.5653 7.27177e-006 0 -26.1187 14.1729 0.752147 40.6238 2.38419e-006 9.53674e-007 14.0555 11.1698 17.5866 12.7242 -4.76837e-007 -7.10543e-015 28.7808 1.4467e-005 1.79132e-005 0.165834 0.87714 6.61349 1.79883 7.8631 -90.0939 7.38963 1.71661e-005 -9.72809e-008 11.0918 3.09089 0.733781 11.9445 1.14441e-005 6.65395e-008 -0.574583 3.12017 0.596907 14.7254 4.19617e-005 8.195e-008 -23.1442 2.72736 1.62936 10.9679 -9.53674e-006 5.82672e-008 -3.13157 2.72736 1.62937 2.46616 -1.6653 3.69651 122.281 -36.3588 -45.3999 13.0012 7.10543e-015 -2.84217e-014 24.5067 16.4827 7.8373 28.7848 1.52588e-005 -1.19209e-007 -137.817 -38.8347 -123.744 26.5688 1.52588e-005 4.76837e-007 -10.3206 4.0243 -50.5137 8.03675 -0.886582 0.727868 -89.4043 88.9709 89.0941 2.78833 2.38419e-007 0 -0.0604872 6.50809e-006 -2.07022e-006 2.41155 -1.42109e-014 0 -0.0639217 -1.77514e-005 6.66958e-007 7.97966 -0.886765 -1.00486 -89.3952 88.9811 89.085 2.86368 0 7.10543e-015 -1.15742 -1.06961e-005 7.5931e-008 2.11079 0 0 2.576 -7.42966e-006 -4.85626e-007 8.03707 -0.887528 -2.60696 -88.8572 89.3579 88.547 1.84628 -1.42109e-014 0 -1.14578 -1.1238e-005 0.000123273 1.88434 -2.84217e-014 7.10543e-015 1.14576 1.40236e-005 -1.17194e-006 7.92262 -0.885498 2.31175 -89.4226 88.9487 89.1123 2.63761 4.76837e-007 0 0.409289 2.23213e-006 0.000572367 2.16656 -2.38419e-007 7.10543e-015 -0.636601 -1.02515e-005 1.60492e-006 3.4769 0.0597992 2.88789 104.364 40.5023 -88.8246 2.77686 9.72748e-005 -1.52588e-005 -7.66903 0.186171 -1.35044 2.42058 -9.15528e-005 7.10543e-015 -11.2634 -7.12193e-007 6.62834e-005 2.38034 -1.29275 -3.7523 -72.995 -29.1685 106.616 16.3182 6.10351e-005 1.19209e-007 -37.1044 -5.67827 23.3048 27.0901 -2.84217e-014 -7.10543e-015 148.478 22.311 -124.364 24.5451 1.52588e-005 0 32.63 -29.6978 -84.3665 9.21802 0.665817 0.545532 -91.1873 -87.8289 -89.9988 2.66255 -2.84217e-014 0 3.40888 -5.00061e-006 0.00334979 2.2804 0 7.10543e-015 -0.954857 1.2455e-005 7.16316e-007 9.24775 0.665192 -1.1267 -91.1871 -89.4015 -89.9985 2.47041 -4.76837e-007 -1.52588e-005 2.85637 -3.93461e-007 0.00275657 2.2054 -7.10543e-015 -1.42109e-014 -3.16844 2.37508e-006 -2.31702e-007 9.35384 0.66301 -2.72332 88.8068 -89.717 89.9954 1.63407 -4.76837e-007 7.10543e-015 2.54481 5.09751e-006 0.00243533 1.71176 0 0 -2.54482 -1.02039e-005 -3.81339e-006 8.73161 0.675903 2.06801 -91.1883 -86.1973 -89.9998 2.66689 -9.53674e-007 0 6.13104 -5.67878e-007 0.0068054 2.12946 1.04308e-007 1.52588e-005 -2.04542 6.83798e-006 -1.32222e-006 4.96735 -0.62265 3.39586 -101.949 -40.7242 -90.0694 2.15386 1.52588e-005 7.10543e-015 10.0172 -1.69934e-005 8.38411e-006 2.19511 -3.43323e-005 1.52588e-005 -2.66977 1.86485e-006 2.57586e-006 5.0226 -0.0266342 -8.95284e-013 -8.47092 -22.7885 -40.1902 6.69364 2.86102e-005 -1.09447e-007 12.0782 -22.0224 -17.9153 
111.264 80.4916 81.605 -80.1272 -45.6603 -73.718 8.64259 1.95398 -2.38835 163.164 40.9697 135.446 43.7702 7.03335e-006 0 -63.5036 16.7751 1.84254 40.6238 1.43051e-006 9.53674e-007 7.78949 38.9698 56.8382 12.7242 2.38419e-006 9.53674e-007 28.7808 4.17459e-006 1.16017e-005 -8.2249 1.95398 -2.59336 179.975 25.5357 65.9762 43.5653 7.27177e-006 0 -38.0795 28.4883 1.69802 40.6238 2.38419e-006 9.53674e-007 27.4221 5.36016 7.09385 12.7242 -4.76837e-007 0 28.7808 1.4467e-005 1.79132e-005 0.165834 0.87714 6.61349 2.31175 7.49186 -90.7362 7.38963 1.71661e-005 -9.72809e-008 11.8619 4.05165 -0.740649 11.9445 1.14441e-005 6.65396e-008 0.196927 4.01489 -0.918514 14.7254 4.19617e-005 8.195e-008 -22.3883 4.08661 0.513374 10.9679 -9.53674e-006 5.82672e-008 -2.37567 4.0866 0.51337 2.46616 -1.6653 3.69651 118.669 -25.0684 -46.3543 13.0012 0 1.42109e-014 22.2037 18.0173 24.8451 28.7848 1.52588e-005 -1.19209e-007 -131.468 -38.0644 -118 26.5688 1.52588e-005 4.76837e-007 -18.3369 7.39525 -49.658 8.03675 -0.886582 0.727868 -89.4043 88.9709 89.0941 2.78833 2.38419e-007 7.10543e-015 -0.0604872 6.50809e-006 -2.07022e-006 2.41155 0 7.10543e-015 -0.0639217 -1.77514e-005 6.66958e-007 7.97966 -0.886765 -1.00486 -89.3952 88.9811 89.085 2.86368 0 0 -1.15742 -1.06961e-005 7.59309e-008 2.11079 -1.42109e-014 0 2.576 -7.42966e-006 -4.85626e-007 8.03707 -0.887528 -2.60696 -88.8572 89.3579 88.547 1.84628 -1.42109e-014 0 -1.14578 -1.1238e-005 0.000123273 1.88434 0 -7.10543e-015 1.14576 1.40236e-005 -1.17194e-006 7.92262 -0.885498 2.31175 -89.4226 88.9487 89.1123 2.63761 4.76837e-007 0 0.409289 2.23213e-006 0.000572367 2.16656 -2.38419e-007 7.10543e-015 -0.636601 -1.02515e-005 1.60492e-006 3.4769 0.0597992 2.88789 104.364 40.5023 -88.8246 2.77686 9.72748e-005 -1.52588e-005 -7.66903 0.186171 -1.35044 2.42058 -9.15528e-005 0 -11.2634 -7.12193e-007 6.62834e-005 2.38034 -1.29275 -3.7523 -82.731 -41.0016 88.7677 16.3182 6.10351e-005 1.19209e-007 -30.8995 -10.4989 29.395 27.0901 0 7.10543e-015 134.079 30.5077 -118.409 24.5451 1.52588e-005 2.84217e-014 28.6981 -28.6731 -89.3117 9.21802 0.665817 0.545532 -91.1873 -87.8289 -89.9988 2.66255 -1.42109e-014 1.42109e-014 3.40888 -5.00061e-006 0.00334979 2.2804 0 7.10543e-015 -0.954857 1.2455e-005 7.16316e-007 9.24775 0.665192 -1.1267 -91.1871 -89.4015 -89.9985 2.47041 -4.76837e-007 -1.52588e-005 2.85637 -3.93461e-007 0.00275657 2.2054 1.42109e-014 0 -3.16844 2.37508e-006 -2.31702e-007 9.35384 0.66301 -2.72332 88.8068 -89.717 89.9954 1.63407 -4.76837e-007 0 2.54481 5.09751e-006 0.00243533 1.71176 0 0 -2.54482 -1.02039e-005 -3.81339e-006 8.73161 0.675903 2.06801 -91.1883 -86.1973 -89.9998 2.66689 -9.53674e-007 0 6.13104 -5.67878e-007 0.0068054 2.12946 1.04308e-007 1.52588e-005 -2.04542 6.83798e-006 -1.32222e-006 4.96735 -0.62265 3.39586 -101.949 -40.7242 -90.0694 2.15386 1.52588e-005 0 10.0172 -1.69934e-005 8.38411e-006 2.19511 -3.43323e-005 1.52588e-005 -2.66977 1.86485e-006 2.57586e-006 5.0226 -0.0266342 -9.09495e-013 -8.6944 -28.493 -8.83256 6.69364 2.86102e-005 -1.09447e-007 -4.40266 -26.4982 -43.3488 
106.87 81.7511 78.9977 -86.4644 -32.5818 -81.5888 8.64259 1.95398 -2.38835 172.372 27.9991 130.746 43.7702 7.03335e-006 0 -56.8985 10.112 1.29617 40.6238 1.43051e-006 9.53674e-007 13.0357 32.1939 43.2026 12.7242 2.38419e-006 9.53674e-007 28.7808 4.17459e-006 1.16017e-005 -8.2249 1.95398 -2.59336 -177.862 31.3665 68.6479 43.5653 7.27177e-006 0 -43.7478 32.9592 2.00039 40.6238 2.38419e-006 9.53674e-007 36.0486 -0.107153 0.744236 12.7242 -4.76837e-007 -3.55271e-015 28.7808 1.4467e-005 1.79132e-005 0.165834 0.87714 6.61349 1.81619 7.44332 -90.1602 7.38963 1.71661e-005 -9.72809e-008 11.9566 3.70772 0.315475 11.9445 1.14441e-005 6.65396e-008 0.290902 3.72066 0.151708 14.7254 4.19617e-005 8.195e-008 -22.282 3.44214 1.41755 10.9679 -9.53674e-006 5.82672e-008 -2.26936 3.44213 1.41752 2.46616 -1.6653 3.69651 113.894 -31.757 -58.8311 13.0012 -1.42109e-014 -2.84217e-014 15.3939 20.9336 37.6927 28.7848 1.52588e-005 -1.19209e-007 -127.308 -36.0256 -113.824 26.5688 1.52588e-005 4.76837e-007 -17.1071 7.75149 -55.1224 8.03675 -0.886582 0.727868 -89.4043 88.9709 89.0941 2.78833 2.38419e-007 -1.42109e-014 -0.0604872 6.50809e-006 -2.07022e-006 2.41155 1.42109e-014 -1.42109e-014 -0.0639217 -1.77514e-005 6.66958e-007 7.97966 -0.886765 -1.00486 -89.3952 88.9811 89.085 2.86368 0 -7.10543e-015 -1.15742 -1.06961e-005 7.59309e-008 2.11079 0 0 2.576 -7.42966e-006 -4.85626e-007 8.03707 -0.887528 -2.60696 -88.8572 89.3579 88.547 1.84628 -1.42109e-014 7.10543e-015 -1.14578 -1.1238e-005 0.000123273 1.88434 1.42109e-014 0 1.14576 1.40236e-005 -1.17194e-006 7.92262 -0.885498 2.31175 -89.4226 88.9487 89.1123 2.63761 4.76837e-007 0 0.409289 2.23213e-006 0.000572367 2.16656 -2.38419e-007 7.10543e-015 -0.636601 -1.02515e-005 1.60492e-006 3.4769 0.0597992 2.88789 104.364 40.5023 -88.8246 2.77686 9.72748e-005 -1.52588e-005 -7.66903 0.186171 -1.35044 2.42058 -9.15528e-005 0 -11.2634 -7.12193e-007 6.62834e-005 2.38034 -1.29275 -3.7523 -80.7129 -39.2826 92.0595 16.3182 6.10351e-005 1.19209e-007 -29.3652 -11.4383 43.7378 27.0901 0 -7.10543e-015 116.897 23.4866 -103.631 24.5451 1.52588e-005 0 17.298 -21.4432 -99.7131 9.21802 0.665817 0.545532 -91.1873 -87.8289 -89.9988 2.66255 0 0 3.40888 -5.00061e-006 0.00334979 2.2804 0 -1.42109e-014 -0.954857 1.2455e-005 7.16316e-007 9.24775 0.665192 -1.1267 -91.1871 -89.4015 -89.9985 2.47041 -4.76837e-007 -1.52588e-005 2.85637 -3.93461e-007 0.00275657 2.2054 1.42109e-014 -1.42109e-014 -3.16844 2.37508e-006 -2.31702e-007 9.35384 0.66301 -2.72332 88.8068 -89.717 89.9954 1.63407 -4.76837e-007 1.42109e-014 2.54481 5.09751e-006 0.00243533 1.71176 2.84217e-014 7.10543e-015 -2.54482 -1.02039e-005 -3.81339e-006 8.73161 0.675903 2.06801 -91.1883 -86.1973 -89.9998 2.66689 -9.53674e-007 0 6.13104 -5.67878e-007 0.0068054 2.12946 1.04308e-007 1.52588e-005 -2.04542 6.83798e-006 -1.32222e-006 4.96735 -0.62265 3.39586 -101.949 -40.7242 -90.0694 2.15386 1.52588e-005 1.42109e-014 10.0172 -1.69934e-005 8.38411e-006 2.19511 -3.43323e-005 1.52588e-005 -2.66977 1.86485e-006 2.57586e-006 5.0226 -0.0266342 -9.37916e-013 -11.4353 -24.6999 -2.56303 6.69364 2.86102e-005 -1.09447e-007 -8.055 -22.1197 -45.872 
102.227 82.9378 76.044 -90.9812 -18.026 -86.4524 8.64259 1.95398 -2.38835 179.371 14.9578 127.222 43.7702 7.03335e-006 0 -51.329 3.20598 0.787084 40.6238 1.43051e-006 9.53674e-007 19.4692 23.6177 28.1841 12.7242 2.38419e-006 9.53674e-007 28.7808 4.17459e-006 1.16017e-005 -8.2249 1.95398 -2.59336 -177.758 33.5095 71.974 43.5653 7.27177e-006 -7.10543e-015 -45.0727 22.2159 1.04276 40.6238 2.38419e-006 9.53674e-007 42.9164 -5.21793 -3.76221 12.7242 -4.76837e-007 0 28.7808 1.4467e-005 1.79132e-005 0.165834 0.87714 6.61349 1.52078 7.34013 -89.6046 7.38963 1.71661e-005 -9.72809e-008 12.1593 3.62361 1.19563 11.9445 1.14441e-005 6.65395e-008 0.492755 3.6777 1.03555 14.7254 4.19617e-005 8.195e-008 -22.0673 3.08414 2.21346 10.9679 -9.53674e-006 5.82672e-008 -2.05467 3.08414 2.21345 2.46616 -1.6653 3.69651 107.174 -36.2992 -72.6825 13.0012 1.42109e-014 0 11.941 21.4496 48.5317 28.7848 1.52588e-005 -1.19209e-007 -126.899 -34.9359 -113.016 26.5688 1.52588e-005 4.76837e-007 -20.5075 10.0053 -58.2882 8.03675 -0.886582 0.727868 -89.4043 88.9709 89.0941 2.78833 2.38419e-007 1.42109e-014 -0.0604872 6.50809e-006 -2.07022e-006 2.41155 0 0 -0.0639217 -1.77514e-005 6.66958e-007 7.97966 -0.886765 -1.00486 -89.3952 88.9811 89.085 2.86368 -1.42109e-014 0 -1.15742 -1.06961e-005 7.59309e-008 2.11079 0 0 2.576 -7.42966e-006 -4.85626e-007 8.03707 -0.887528 -2.60696 -88.8572 89.3579 88.547 1.84628 1.42109e-014 0 -1.14578 -1.1238e-005 0.000123273 1.88434 0 -1.42109e-014 1.14576 1.40236e-005 -1.17194e-006 7.92262 -0.885498 2.31175 -89.4226 88.9487 89.1123 2.63761 4.76837e-007 -1.42109e-014 0.409289 2.23213e-006 0.000572367 2.16656 -2.38419e-007 0 -0.636601 -1.02515e-005 1.60492e-006 3.4769 0.0597992 2.88789 104.364 40.5023 -88.8246 2.77686 9.72748e-005 -1.52588e-005 -7.66903 0.186171 -1.35044 2.42058 -9.15528e-005 0 -11.2634 -7.12193e-007 6.62834e-005 2.38034 -1.29275 -3.7523 -79.0377 -35.9349 94.8311 16.3182 6.10351e-005 1.19209e-007 -31.5646 -9.99276 50.5618 27.0901 2.84217e-014 1.42109e-014 108.489 14.4136 -96.9911 24.5451 1.52588e-005 0 16.3779 -19.905 -97.5298 9.21802 0.665817 0.545532 -91.1873 -87.8289 -89.9988 2.66255 1.42109e-014 7.10543e-015 3.40888 -5.00061e-006 0.00334979 2.2804 -1.42109e-014 0 -0.954857 1.2455e-005 7.16316e-007 9.24775 0.665192 -1.1267 -91.1871 -89.4015 -89.9985 2.47041 -4.76837e-007 -1.52588e-005 2.85637 -3.93461e-007 0.00275657 2.2054 0 0 -3.16844 2.37508e-006 -2.31702e-007 9.35384 0.66301 -2.72332 88.8068 -89.717 89.9954 1.63407 -4.76837e-007 0 2.54481 5.09751e-006 0.00243533 1.71176 0 -7.10543e-015 -2.54482 -1.02039e-005 -3.81339e-006 8.73161 0.675903 2.06801 -91.1883 -86.1973 -89.9998 2.66689 -9.53674e-007 -7.10543e-015 6.13104 -5.67878e-007 0.0068054 2.12946 1.04308e-007 1.52588e-005 -2.04542 6.83798e-006 -1.32222e-006 4.96735 -0.62265 3.39586 -101.949 -40.7242 -90.0694 2.15386 1.52588e-005 -7.10543e-015 10.0172 -1.69934e-005 8.38411e-006 2.19511 -3.43323e-005 1.52588e-005 -2.66977 1.86485e-006 2.57586e-006 5.0226 -0.0266342 -8.95284e-013 -12.7311 -21.6595 2.13943 6.69364 2.86102e-005 -1.09447e-007 -10.2085 -18.4375 -45.9797 
